<svg width="75" height="65" viewBox="0 0 75 65" fill="none" xmlns="http://www.w3.org/2000/svg">
<rect x="0.75" width="73.75" height="65" rx="32.5" fill="white"/>
<path d="M41.5259 27.2346V32.8896H46.5959C46.9859 32.8896 47.1809 33.2796 47.1809 33.6696L46.4009 37.3746C46.4009 37.5696 46.0109 37.7646 45.8159 37.7646H41.5259V51.9996H35.6759V37.9596H32.3609C31.9709 37.9596 31.7759 37.7646 31.7759 37.3746V33.6696C31.7759 33.2796 31.9709 33.0846 32.3609 33.0846H35.6759V26.6496C35.6759 23.3346 38.2109 20.7996 41.5259 20.7996H46.7909C47.1809 20.7996 47.3759 20.9946 47.3759 21.3846V26.0646C47.3759 26.4546 47.1809 26.6496 46.7909 26.6496H42.1109C41.7209 26.6496 41.5259 26.8446 41.5259 27.2346Z" stroke="#363775" stroke-width="3" stroke-miterlimit="10" stroke-linecap="round"/>
<path d="M43.475 52H31.775C22.025 52 18.125 48.1 18.125 38.35V26.65C18.125 16.9 22.025 13 31.775 13H43.475C53.225 13 57.125 16.9 57.125 26.65V38.35C57.125 48.1 53.225 52 43.475 52Z" stroke="#363775" stroke-width="3" stroke-linecap="round" stroke-linejoin="round"/>
</svg>
