<svg width="74" height="65" viewBox="0 0 74 65" fill="none" xmlns="http://www.w3.org/2000/svg">
<rect width="73.75" height="65" rx="32.5" fill="white"/>
<path d="M31.025 52H42.725C52.475 52 56.375 48.1 56.375 38.35V26.65C56.375 16.9 52.475 13 42.725 13H31.025C21.275 13 17.375 16.9 17.375 26.65V38.35C17.375 48.1 21.275 52 31.025 52Z" stroke="#363775" stroke-width="3" stroke-linecap="round" stroke-linejoin="round"/>
<path d="M36.8741 39.3241C37.7703 39.3241 38.6578 39.1475 39.4859 38.8046C40.3139 38.4616 41.0663 37.9588 41.7001 37.3251C42.3338 36.6913 42.8366 35.9389 43.1796 35.1109C43.5225 34.2828 43.6991 33.3953 43.6991 32.4991C43.6991 31.6028 43.5225 30.7153 43.1796 29.8873C42.8366 29.0592 42.3338 28.3068 41.7001 27.6731C41.0663 27.0393 40.3139 26.5366 39.4859 26.1936C38.6578 25.8506 37.7703 25.6741 36.8741 25.6741C35.064 25.6741 33.328 26.3931 32.0481 27.6731C30.7681 28.953 30.0491 30.689 30.0491 32.4991C30.0491 34.3092 30.7681 36.0451 32.0481 37.3251C33.328 38.605 35.064 39.3241 36.8741 39.3241Z" stroke="#363775" stroke-width="3" stroke-linecap="round" stroke-linejoin="round"/>
<path d="M47.864 22.75H47.8771" stroke="#363775" stroke-width="3" stroke-linecap="round" stroke-linejoin="round"/>
</svg>
