<svg width="74" height="65" viewBox="0 0 74 65" fill="none" xmlns="http://www.w3.org/2000/svg">
<rect x="0.25" width="73.75" height="65" rx="32.5" fill="white"/>
<path d="M27.18 49.27C30.105 51.025 33.615 52 37.125 52C47.85 52 56.625 43.225 56.625 32.5C56.625 21.775 47.85 13 37.125 13C26.4 13 17.625 21.775 17.625 32.5C17.625 36.01 18.6 39.325 20.16 42.25L18.483 48.6967C18.3965 49.0295 18.3995 49.3793 18.4918 49.7105C18.584 50.0418 18.7623 50.3428 19.0084 50.5829C19.2545 50.8231 19.5597 50.9939 19.8931 51.078C20.2265 51.1622 20.5763 51.1567 20.9069 51.062L27.18 49.27Z" stroke="#363775" stroke-width="3" stroke-miterlimit="10" stroke-linecap="round" stroke-linejoin="round"/>
<path d="M45.8991 38.0527C45.8991 38.3686 45.8289 38.6943 45.6788 39.0102C45.5256 39.3366 45.3244 39.6383 45.0821 39.9052C44.6511 40.3791 44.1773 40.7203 43.6391 40.9407C43.1126 41.161 42.5412 41.2741 41.927 41.2741C41.03 41.2741 40.0725 41.0635 39.0605 40.6345C37.9905 40.1707 36.9766 39.5871 36.038 38.8951C35.0171 38.1494 34.0537 37.3281 33.1559 36.4381C32.2676 35.5452 31.4482 34.5863 30.7047 33.5697C30.0215 32.6392 29.4434 31.636 28.9809 30.5784C28.5597 29.5741 28.3491 28.6186 28.3491 27.708C28.3491 27.1113 28.4544 26.5419 28.665 26.0154C28.8756 25.4791 29.211 24.9877 29.6771 24.549C30.2387 23.9952 30.8529 23.7241 31.5042 23.7241C31.7499 23.7241 31.9956 23.7768 32.216 23.8821C32.4441 23.9874 32.645 24.1453 32.8049 24.3735L34.8446 27.2439C35.0006 27.4623 35.1176 27.6651 35.1956 27.8581C35.2736 28.0414 35.3184 28.2267 35.3184 28.3924C35.3159 28.6136 35.2517 28.8297 35.1332 29.0164C34.9978 29.2447 34.8325 29.4539 34.6418 29.6385L33.9729 30.3327C33.9264 30.3782 33.8899 30.4329 33.8657 30.4934C33.8415 30.5538 33.8302 30.6186 33.8325 30.6837C33.8325 30.7519 33.8423 30.8143 33.8598 30.8845C33.8852 30.9547 33.9125 31.0074 33.93 31.06C34.086 31.3506 34.359 31.7269 34.7471 32.1832C35.1429 32.6395 35.5641 33.1056 36.0204 33.5697C36.4962 34.0357 36.9525 34.4647 37.4186 34.8606C37.8749 35.2447 38.2532 35.508 38.5515 35.6659L38.7114 35.7381C38.7815 35.7631 38.8555 35.775 38.9298 35.7732C38.9971 35.7746 39.0639 35.762 39.126 35.7362C39.1882 35.7103 39.2442 35.6718 39.2906 35.623L39.9575 34.9639C40.1778 34.7455 40.3884 34.5798 40.5912 34.4725C40.7777 34.3537 40.9941 34.2901 41.2152 34.2892C41.3998 34.2919 41.582 34.331 41.7515 34.4043C41.9445 34.4823 42.1473 34.5954 42.3657 34.7455L45.2751 36.8086C45.4859 36.9458 45.6536 37.1398 45.7587 37.3683C45.8499 37.585 45.8976 37.8176 45.8991 38.0527Z" stroke="#363775" stroke-width="3" stroke-miterlimit="10"/>
</svg>
