<svg width="75" height="65" viewBox="0 0 75 65" fill="none" xmlns="http://www.w3.org/2000/svg">
<rect x="0.5" width="73.75" height="65" rx="32.5" fill="white"/>
<path d="M49.5625 52H25.1875C17.875 52 13 47.125 13 39.8125V25.1875C13 17.875 17.875 13 25.1875 13H49.5625C56.875 13 61.75 17.875 61.75 25.1875V39.8125C61.75 47.125 56.875 52 49.5625 52Z" stroke="#363775" stroke-width="3" stroke-miterlimit="10" stroke-linecap="round" stroke-linejoin="round"/>
<path d="M35.9136 26.4061L42.0074 30.0623C44.2011 31.5248 44.2011 33.7186 42.0074 35.1811L35.9136 38.8373C33.4761 40.2998 31.5261 39.0811 31.5261 36.3998V29.0873C31.5261 25.9186 33.4761 24.9436 35.9136 26.4061Z" stroke="#363775" stroke-width="3" stroke-miterlimit="10" stroke-linecap="round" stroke-linejoin="round"/>
</svg>
