<svg width="47" height="41" viewBox="0 0 47 41" fill="none" xmlns="http://www.w3.org/2000/svg">
<path d="M23.3649 4.36718C25.3566 4.36718 27.0769 3.09726 27.6949 1.2291C26.5159 1.55365 25.0131 1.74954 23.3649 1.74954C21.7169 1.74954 20.2141 1.55365 19.0352 1.2291C19.6528 3.0971 21.373 4.36718 23.3649 4.36718Z" fill="#363775"/>
<path d="M46.298 6.66445C46.2034 6.39902 46.0066 6.18072 45.7502 6.06185L36.9838 2.01497C35.1191 1.38328 33.2193 0.884306 31.3011 0.519604C31.2335 0.506379 31.1663 0.5 31.1001 0.5C30.6252 0.5 30.2 0.827827 30.0942 1.3086C29.3937 4.39238 26.6639 6.70117 23.3648 6.70117C20.0658 6.70117 17.3358 4.39253 16.6355 1.3086C16.5285 0.827827 16.104 0.5 15.6295 0.5C15.5632 0.5 15.496 0.506379 15.4285 0.519604C13.5104 0.884306 11.6106 1.38328 9.74293 2.01497L0.979668 6.0617C0.721701 6.18057 0.52348 6.39886 0.433394 6.6643C0.340196 6.93284 0.357 7.2227 0.488317 7.476L4.29403 14.9866C4.47218 15.3431 4.83455 15.557 5.21792 15.557C5.31688 15.557 5.41723 15.5427 5.51619 15.513L9.74308 14.2602V39.461C9.74308 40.0332 10.21 40.5 10.7838 40.5H35.9462C36.5185 40.5 36.984 40.0331 36.984 39.461V14.2605L41.2138 15.5133C41.3128 15.543 41.413 15.5573 41.5118 15.5573C41.8944 15.5573 42.2553 15.3434 42.436 14.9869L46.2431 7.47632C46.3713 7.22286 46.3897 6.933 46.298 6.66445Z" fill="#363775"/>
</svg>
