<svg width="49" height="41" viewBox="0 0 49 41" fill="none" xmlns="http://www.w3.org/2000/svg">
<path d="M48.3064 10.5442C48.0734 11.406 47.7473 12.2097 47.0485 12.8153C46.5361 13.2579 45.9654 13.584 45.2898 13.7005C45.022 13.7471 44.9055 13.8519 44.8473 14.1314C43.6826 20.2227 42.5062 26.3141 41.3415 32.417C41.2833 32.7548 41.1785 32.8713 40.8174 32.8713C29.9276 32.8596 19.0261 32.8596 8.13622 32.8596C8.01975 32.8596 7.89163 32.848 7.72858 32.8363C7.51893 31.7415 7.30929 30.6467 7.09964 29.5519C6.10966 24.404 5.11967 19.2444 4.12968 14.0965C4.0831 13.8286 3.95498 13.7471 3.7104 13.6888C1.94007 13.3161 0.693848 11.802 0.693848 10.0317C0.693848 8.24972 1.97501 6.66575 3.72204 6.29304C5.43414 5.92034 7.20447 6.8288 7.97316 8.47102C8.70692 10.055 8.21775 11.9767 6.77353 13.0366C6.43577 13.2812 6.45906 13.4559 6.61047 13.782C7.53058 15.8202 8.66033 17.707 10.2792 19.2677C11.0363 20.0014 11.8865 20.642 12.8765 21.038C14.9846 21.8766 16.8481 21.3991 18.5136 19.9316C19.5036 19.0581 20.2374 17.9865 20.8663 16.8451C22.0543 14.6672 22.7647 12.3261 23.3354 9.86864C21.7631 9.37947 20.6217 8.41278 20.051 6.8521C19.6783 5.85046 19.6667 4.81389 19.9928 3.80061C20.6101 1.7624 22.6017 0.411359 24.7913 0.504534C26.7946 0.597709 28.693 2.18169 29.1356 4.17331C29.4151 5.41953 29.2288 6.60751 28.5649 7.70232C27.901 8.79713 26.9227 9.4843 25.6415 9.86864C25.9793 11.045 26.2704 12.198 26.6431 13.3278C27.3769 15.529 28.3319 17.6255 29.9159 19.3609C31.1738 20.7352 32.6879 21.5854 34.6213 21.4224C35.6462 21.3292 36.5663 20.9332 37.4049 20.3392C39.909 18.5805 41.3765 16.0648 42.5295 13.4326C42.0404 12.8735 41.5046 12.4193 41.1785 11.837C40.3981 10.4743 40.503 9.07665 41.3998 7.81879C42.3432 6.49104 43.6942 5.97858 45.2665 6.30469C46.8389 6.64245 47.8172 7.67903 48.2016 9.25136C48.2249 9.33289 48.2598 9.42606 48.2831 9.50759C48.3064 9.86864 48.3064 10.2064 48.3064 10.5442Z" fill="#F4BF35"/>
<path d="M24.5002 34.7814C29.4734 34.7814 34.4466 34.793 39.4199 34.7814C40.6079 34.7814 41.5862 35.1657 42.1918 36.2256C43.2168 38.0192 42.0754 40.2438 40.0255 40.4767C39.8392 40.5 39.6528 40.5 39.4665 40.5C29.4851 40.5 19.5037 40.5 9.52227 40.5C7.98488 40.5 6.92501 39.7546 6.52902 38.4269C6.0282 36.7264 7.23948 34.9561 9.02145 34.828C9.26604 34.8047 9.52227 34.8047 9.76686 34.8047C14.6702 34.7814 19.5852 34.7814 24.5002 34.7814Z" fill="#F4BF35"/>
</svg>
