<svg width="58" height="41" viewBox="0 0 58 41" fill="none" xmlns="http://www.w3.org/2000/svg">
<path d="M0.63501 15.997C0.97318 15.2766 1.19373 14.4679 1.66422 13.8504C2.85517 12.3213 4.48721 11.7625 6.3692 12.2036C8.2953 12.6741 9.47154 13.9533 9.88323 15.8941C10.3537 18.0849 10.7654 20.2756 11.2065 22.4664C11.5888 24.3483 12.8679 25.3923 14.8382 25.3923C20.9693 25.3923 27.1152 25.3923 33.2464 25.3923C36.4369 25.3923 39.6422 25.3923 42.8328 25.3923C44.8912 25.3923 46.1262 24.3925 46.5379 22.3634C46.979 20.2462 47.4054 18.129 47.8171 16.0117C48.2729 13.718 50.0814 12.1301 52.3309 12.0713C54.5658 12.0125 56.4331 13.5269 56.9918 15.8206C57.0065 15.8794 57.0506 15.9382 57.0947 16.0117C57.0947 16.5557 57.0947 17.1144 57.0947 17.6585C57.0212 18.423 56.933 19.1876 56.8889 19.9374C56.7271 22.2899 56.6095 24.6571 56.4184 27.0096C56.1684 30.3913 53.1396 33.2437 49.7138 33.376C49.5521 33.376 49.3903 33.3907 49.2139 33.3907C35.643 33.3907 22.0721 33.3907 8.50114 33.3907C4.84008 33.3907 1.85536 30.8912 1.35546 27.289C1.10551 25.4952 1.0908 23.672 0.97318 21.8635C0.884962 20.5991 0.811446 19.3346 0.723228 18.0849C0.723228 17.9819 0.664416 17.879 0.63501 17.7761C0.63501 17.1733 0.63501 16.5851 0.63501 15.997Z" fill="#363775"/>
<path d="M13.1033 35.1698C12.7651 36.4342 12.5151 37.6693 12.1181 38.8602C11.6771 40.1394 10.2656 40.7716 8.9717 40.3894C7.69253 40.0071 6.91327 38.7426 7.16322 37.3752C7.29555 36.6401 7.51609 35.9196 7.70723 35.1698C9.4863 35.1698 11.2507 35.1698 13.1033 35.1698Z" fill="#363775"/>
<path d="M44.6414 35.1698C46.4792 35.1698 48.2436 35.1698 50.0374 35.1698C50.2285 35.949 50.4638 36.7283 50.5814 37.5076C50.7872 38.9044 49.9051 40.1541 48.5818 40.4188C47.1703 40.7128 45.8764 39.9336 45.4941 38.5221C45.2001 37.4488 44.9354 36.346 44.6414 35.1698Z" fill="#363775"/>
<path d="M28.5413 0.5C33.7168 0.5 38.907 0.5 44.0824 0.5C47.4935 0.5 50.2724 2.49961 51.2869 5.60196C51.7868 7.11637 51.6692 8.64549 51.331 10.1599C51.3016 10.2775 51.1252 10.4099 50.9929 10.4393C48.0228 11.2332 46.4643 13.2328 45.9497 16.1882C45.5968 18.1878 45.1705 20.1727 44.7588 22.1723C44.5529 23.128 43.9942 23.5985 43.0238 23.5985C33.5844 23.5985 24.1304 23.5985 14.691 23.5985C13.7353 23.5985 13.1619 23.128 12.9561 22.1576C12.4856 19.8639 12.0592 17.5555 11.5446 15.2766C10.9712 12.6594 8.89803 10.7921 6.23678 10.351C6.06034 10.3216 5.81039 10.1305 5.76628 9.95406C4.57533 5.69018 7.13366 1.49981 11.4711 0.64703C12.0445 0.529406 12.6326 0.514703 13.2207 0.514703C18.3374 0.5 23.4393 0.5 28.5413 0.5Z" fill="#363775"/>
</svg>
