<svg width="41" height="41" viewBox="0 0 41 41" fill="none" xmlns="http://www.w3.org/2000/svg">
<path d="M39.3761 40.5C38.5427 40.5 37.7094 40.2917 36.8761 40.2917C32.9177 39.6667 29.7927 38 27.7094 34.6667C26.6677 33.2083 25.8344 31.5417 25.0011 30.0833C24.5844 29.25 23.9594 28.625 23.3344 27.7917C22.2927 26.75 21.0427 25.9167 19.5844 25.7083C19.3761 25.7083 19.1677 25.7083 19.1677 25.2917C19.1677 22.7917 19.1677 20.0833 19.1677 17.5833V17.375C19.7927 17.5833 20.6261 17.7917 21.2511 18C23.5427 18.8333 25.6261 20.2917 26.8761 22.375C28.1261 24.0417 29.1677 25.9167 30.2094 27.7917C31.0427 29.0417 31.8761 30.5 32.9177 31.5417C35.0011 33.625 37.2927 34.875 40.2094 35.5H40.4177C40.4177 35.5 40.4177 35.5 40.6261 35.5C40.6261 37.1667 40.6261 38.8333 40.6261 40.5C40.2094 40.5 39.7927 40.5 39.3761 40.5Z" fill="#363775"/>
<path d="M0.834229 8.83333H1.04256C6.45923 8.83333 11.6676 8.83333 17.0842 8.83333C17.0842 8.83333 17.2926 8.83333 17.5009 8.83333C17.5009 13.2083 17.5009 17.5833 17.5009 22.1667H17.2926C11.8759 22.1667 6.66756 22.1667 1.2509 22.1667H1.04256C0.834229 17.5833 0.834229 13.2083 0.834229 8.83333ZM4.16756 15.5C4.16756 18.4167 6.2509 20.5 9.16756 20.5C12.0842 20.5 14.1676 18.4167 14.1676 15.5C14.1676 12.5833 12.0842 10.5 9.16756 10.5C6.2509 10.5 4.16756 12.5833 4.16756 15.5Z" fill="#363775"/>
<path d="M14.1673 40.5C14.1673 39.4584 14.1673 38.4167 14.1673 37.1667C11.459 37.1667 8.54232 37.1667 5.83398 37.1667C5.83398 36.125 5.83398 34.875 5.83398 33.8334C8.54232 33.8334 11.2507 33.8334 14.1673 33.8334C14.1673 32.7917 14.1673 31.5417 14.1673 30.5C11.459 30.5 8.75065 30.5 5.83398 30.5C5.83398 29.4584 5.83398 28.2084 5.83398 27.1667C8.54232 27.1667 11.2507 27.1667 14.1673 27.1667C14.1673 26.125 14.1673 24.875 14.1673 23.8334C15.209 23.8334 16.459 23.8334 17.5007 23.8334V24.0417C17.5007 29.4584 17.5007 34.6667 17.5007 40.0834V40.2917C16.2507 40.5 15.209 40.5 14.1673 40.5Z" fill="#363775"/>
<path d="M0.834229 23.8334C1.8759 23.8334 2.91756 23.8334 4.16756 23.8334C4.16756 24.0417 4.16756 24.25 4.16756 24.25C4.16756 29.4584 4.16756 34.6667 4.16756 39.875C4.16756 40.0834 4.16756 40.2917 4.16756 40.2917C3.1259 40.2917 1.8759 40.2917 0.834229 40.2917C0.834229 34.875 0.834229 29.25 0.834229 23.8334Z" fill="#363775"/>
<path d="M0.834229 7.16667C3.7509 4.875 6.45923 2.79167 9.16756 0.5C11.8759 2.58333 14.5842 4.875 17.5009 7.16667C11.8759 7.16667 6.45923 7.16667 0.834229 7.16667Z" fill="#363775"/>
</svg>
