<svg width="43" height="41" viewBox="0 0 43 41" fill="none" xmlns="http://www.w3.org/2000/svg">
<path d="M14.37 2.63673C16.7083 2.67252 18.8915 3.14973 20.7765 4.56941C23.4846 6.60946 24.5583 9.40111 24.3197 12.7057C23.9738 17.4778 20.4782 20.687 15.742 21.1403C13.6184 21.3431 11.5426 21.1523 9.58605 20.2575C6.30527 18.7424 4.58734 16.1058 4.36067 12.5626C4.15786 9.47269 5.15998 6.81227 7.60566 4.80801C9.57412 3.19745 11.9005 2.66059 14.37 2.63673ZM13.6304 17.5852C12.9265 17.5255 12.318 17.3227 11.7454 16.9887C10.7671 16.416 10.099 15.6286 10.0513 14.4356C10.0275 13.9823 9.69343 13.6959 9.2878 13.7317C8.88218 13.7556 8.61972 14.0658 8.63165 14.5311C8.66744 15.8792 9.2878 16.9409 10.3257 17.7283C12.4373 19.3031 14.7637 19.5059 17.1617 18.468C18.7842 17.7522 19.8698 16.5472 20.0726 14.71C20.1323 14.1374 19.8579 13.7675 19.4045 13.7437C18.9631 13.7198 18.7007 14.0181 18.6529 14.5907C18.5098 16.1535 16.6845 17.6687 15.0858 17.5494C15.0858 16.929 15.062 16.3086 15.0978 15.6883C15.1097 15.5213 15.229 15.3065 15.3602 15.1991C15.7539 14.877 16.1834 14.6146 16.5771 14.3044C17.1736 13.8272 17.3645 13.0756 17.1259 12.3717C16.8873 11.6917 16.2788 11.2503 15.5153 11.2503C14.7518 11.2383 14.0002 11.2503 13.2367 11.2503C12.4493 11.2503 11.8408 11.6798 11.6022 12.3836C11.3517 13.0994 11.5784 13.8749 12.1987 14.3402C12.6044 14.6504 13.0219 14.9247 13.4275 15.223C13.523 15.2946 13.6423 15.4139 13.6423 15.5093C13.6423 16.1774 13.6304 16.8574 13.6304 17.5852ZM10.0513 9.7948C9.65764 9.7948 9.34745 10.105 9.34745 10.4987C9.34745 10.9043 9.68149 11.2264 10.0871 11.2145C10.4689 11.2026 10.7791 10.8685 10.7791 10.4867C10.7552 10.105 10.4331 9.78287 10.0513 9.7948ZM19.3568 10.5106C19.3687 10.1288 19.0466 9.7948 18.6649 9.78287C18.2831 9.77094 17.9491 10.0692 17.9371 10.4629C17.9133 10.8685 18.2354 11.2026 18.641 11.2026C19.0228 11.2145 19.3449 10.8924 19.3568 10.5106Z" fill="#363775"/>
<path d="M20.8005 29.0977C16.6846 29.897 14.6565 34.5975 16.4221 38.5105C15.5274 39.2383 13.5589 39.2741 12.2705 38.5344C13.1056 36.6375 13.1891 34.6929 12.3778 32.7602C11.5547 30.8156 10.1231 29.551 7.90405 29.0977C8.03528 28.3222 8.11879 27.5229 8.29775 26.7475C8.65565 25.1727 9.32374 23.7411 10.3736 22.5003C10.5764 22.2617 10.7434 22.1663 11.0894 22.2498C13.2965 22.7747 15.5155 22.7747 17.7225 22.226C18.0208 22.1544 18.1639 22.2737 18.319 22.4646C19.6075 23.9439 20.2994 25.6976 20.6215 27.6064C20.6931 28.0956 20.7289 28.5847 20.8005 29.0977Z" fill="#363775"/>
<path d="M11.4949 35.7309C11.4591 36.9955 11.0057 38.3316 9.89624 39.3815C8.35726 40.8608 6.09054 40.8728 4.52769 39.4173C2.34448 37.3892 2.35642 33.5954 4.53962 31.5792C6.49616 29.7658 9.40711 30.3146 10.7791 32.7603C11.2324 33.5715 11.4829 34.5379 11.4949 35.7309Z" fill="#363775"/>
<path d="M17.2212 35.2298C17.2808 33.7743 17.8535 32.2711 19.309 31.2213C20.7883 30.1595 22.6852 30.2788 24.0571 31.4718C26.2165 33.3448 26.4193 36.9954 24.4747 39.119C22.709 41.0398 20.0009 40.9443 18.3784 38.9043C17.6268 37.9737 17.2212 36.7688 17.2212 35.2298Z" fill="#363775"/>
<path d="M9.13285 21.7488C7.49843 23.7769 6.72297 26.1629 6.52016 28.7518C6.4963 29.0381 6.41279 29.1454 6.11454 29.2051C4.96924 29.4437 4.00291 30.0163 3.23938 30.8872C3.02464 31.1258 2.85762 31.1378 2.58322 31.0423C1.40214 30.589 0.674406 29.4198 0.769847 28.1553C1.05617 24.5046 2.8099 21.8323 6.05488 20.1263C6.31735 19.9831 6.47244 20.0189 6.72297 20.1859C7.49843 20.7109 8.30968 21.2119 9.13285 21.7488Z" fill="#363775"/>
<path d="M19.5957 21.7368C20.4547 21.1642 21.2778 20.6154 22.113 20.0785C22.2084 20.0189 22.3993 20.007 22.5066 20.0547C25.6681 21.6652 27.4815 24.2064 27.8871 27.7377C27.9826 28.5966 27.9229 29.4079 27.3383 30.0879C27.1355 30.3384 26.885 30.5651 26.6225 30.7441C25.9425 31.1974 25.8351 31.1735 25.2506 30.6248C24.487 29.897 23.6042 29.396 22.5782 29.1812C22.3038 29.1216 22.2203 29.0261 22.1965 28.7517C22.0414 26.6759 21.5164 24.7074 20.4189 22.9179C20.1564 22.5123 19.8462 22.1067 19.5957 21.7368Z" fill="#363775"/>
<path d="M42.2388 36.9119C39.3755 36.9119 36.5481 36.9119 33.7087 36.9119C33.7087 34.0725 33.7087 31.2451 33.7087 28.3938C36.5362 28.3938 39.3755 28.3938 42.2388 28.3938C42.2388 31.2212 42.2388 34.0487 42.2388 36.9119ZM37.932 35.5042C38.6359 35.5042 39.3278 35.5161 40.0317 35.5042C40.6879 35.4922 41.01 34.9912 40.7236 34.4066C40.0436 33.0227 39.3517 31.6269 38.6359 30.2668C38.5285 30.0521 38.2064 29.8254 37.9916 29.8254C37.753 29.8374 37.4309 30.0521 37.3116 30.2668C36.5958 31.6149 35.9158 32.9869 35.2358 34.3708C34.9256 35.0031 35.2477 35.4922 35.9635 35.5042C36.6197 35.5161 37.2758 35.5042 37.932 35.5042Z" fill="#363775"/>
<path d="M28.6744 18.3845C31.5615 18.3845 34.3889 18.3845 37.2402 18.3845C37.2402 21.2238 37.2402 24.0393 37.2402 26.9026C34.5917 26.9026 31.9313 26.9026 29.2112 26.9026C29.1158 25.8885 28.6147 24.946 28.6505 23.8604C28.7102 22.214 28.6624 20.5558 28.6624 18.9094C28.6744 18.7424 28.6744 18.5754 28.6744 18.3845ZM30.106 22.6316C30.0941 24.2064 31.3825 25.5068 32.9573 25.5068C34.5201 25.5068 35.8086 24.2422 35.8324 22.6912C35.8563 21.1045 34.5798 19.8042 33.005 19.7922C31.4064 19.7803 30.1179 21.0449 30.106 22.6316Z" fill="#363775"/>
<path d="M19.8342 2.33848C20.55 1.02617 22.0532 0.298433 23.4848 0.548966C25.1193 0.835288 26.2407 1.99251 26.4912 3.65079C26.694 4.98696 25.9305 6.51402 24.7375 7.11052C23.6638 4.9631 22.0174 3.38833 19.8342 2.33848Z" fill="#363775"/>
<path d="M8.84643 2.35041C6.67515 3.40026 5.04073 4.96311 3.97895 7.0986C2.86945 6.66911 2.07013 5.14206 2.20136 3.73431C2.33259 2.17146 3.5256 0.87108 5.08845 0.572827C6.60357 0.286505 8.17834 1.01424 8.84643 2.35041Z" fill="#363775"/>
<path d="M27.1233 36.9C27.171 36.4466 27.2068 36.0052 27.2665 35.5042C27.9345 35.5042 28.6146 35.5042 29.2946 35.5042C30.7978 35.5042 30.8216 35.4803 30.8216 33.989C30.8216 32.9153 30.8216 31.8416 30.8216 30.7798C30.8216 30.0163 30.595 29.7896 29.8434 29.7896C29.6405 29.7896 29.4258 29.7896 29.1872 29.7896C29.2707 29.3244 29.3423 28.883 29.4258 28.358C29.8553 28.358 30.3325 28.358 30.7978 28.358C31.263 28.358 31.7164 28.358 32.2174 28.358C32.2174 31.2093 32.2174 34.0368 32.2174 36.9C30.5353 36.9 28.8412 36.9 27.1233 36.9Z" fill="#363775"/>
<path d="M36.5963 16.9171C34.1506 16.9171 31.8004 16.9171 29.3428 16.9171C30.5596 15.1753 31.7407 13.4931 32.9695 11.7394C34.1864 13.4812 35.3675 15.1634 36.5963 16.9171Z" fill="#363775"/>
<path d="M29.3664 31.1735C29.3664 32.1876 29.3664 33.1062 29.3664 34.0487C28.6148 34.0487 27.8752 34.0487 27.1236 34.0487C26.9446 33.5118 26.7537 32.975 26.5986 32.4858C27.1355 32.0922 27.6366 31.6388 28.2092 31.3286C28.5194 31.1616 28.9489 31.2213 29.3664 31.1735Z" fill="#363775"/>
<path d="M14.3464 12.6461C14.7043 12.6461 15.0622 12.6342 15.4201 12.658C15.5274 12.67 15.7183 12.7415 15.7303 12.8251C15.7541 12.9444 15.6945 13.1352 15.611 13.2068C15.265 13.4812 14.8952 13.7437 14.5253 13.9823C14.4418 14.0419 14.2629 14.0419 14.1793 13.9823C13.8214 13.7556 13.4635 13.5051 13.1295 13.2307C13.0221 13.1472 12.9625 12.9563 12.9744 12.8251C12.9863 12.7535 13.2011 12.67 13.3323 12.658C13.6544 12.6342 14.0004 12.6461 14.3464 12.6461Z" fill="#363775"/>
<path d="M38.9463 34.0606C38.2782 34.0606 37.6817 34.0606 37.0017 34.0606C37.3119 33.4283 37.6221 32.8199 37.968 32.1041C38.3259 32.796 38.6242 33.4045 38.9463 34.0606Z" fill="#363775"/>
<path d="M34.3888 22.6555C34.3888 23.4309 33.7326 24.0751 32.9572 24.0751C32.1578 24.0751 31.5136 23.4071 31.5256 22.6197C31.5375 21.8442 32.1936 21.2119 32.981 21.2239C33.7565 21.2239 34.4007 21.88 34.3888 22.6555Z" fill="#363775"/>
</svg>
