<svg width="41" height="42" viewBox="0 0 41 42" fill="none" xmlns="http://www.w3.org/2000/svg">
<g filter="url(#filter0_d_130_1083)">
<rect x="2" y="37.5" width="37" height="37" rx="18.5" transform="rotate(-90 2 37.5)" fill="#E1E1E1" shape-rendering="crispEdges"/>
<path d="M11.75 17.701L23.75 10.7728C24.75 10.1954 26 10.9171 26 12.0718L26 25.9282C26 27.0829 24.75 27.8046 23.75 27.2272L11.75 20.299C10.75 19.7217 10.75 18.2783 11.75 17.701Z" fill="#D9D9D9" stroke="#363775"/>
<path d="M13.5 19.866C12.8333 19.4811 12.8333 18.5189 13.5 18.134L23.25 12.5048C23.9167 12.1199 24.75 12.601 24.75 13.3708L24.75 24.6292C24.75 25.399 23.9167 25.8801 23.25 25.4952L13.5 19.866Z" fill="white"/>
<rect x="2.5" y="37" width="36" height="36" rx="18" transform="rotate(-90 2.5 37)" stroke="#363775" shape-rendering="crispEdges"/>
</g>
<defs>
<filter id="filter0_d_130_1083" x="0" y="0.5" width="41" height="41" filterUnits="userSpaceOnUse" color-interpolation-filters="sRGB">
<feFlood flood-opacity="0" result="BackgroundImageFix"/>
<feColorMatrix in="SourceAlpha" type="matrix" values="0 0 0 0 0 0 0 0 0 0 0 0 0 0 0 0 0 0 127 0" result="hardAlpha"/>
<feOffset dy="2"/>
<feGaussianBlur stdDeviation="1"/>
<feComposite in2="hardAlpha" operator="out"/>
<feColorMatrix type="matrix" values="0 0 0 0 0 0 0 0 0 0 0 0 0 0 0 0 0 0 0.25 0"/>
<feBlend mode="normal" in2="BackgroundImageFix" result="effect1_dropShadow_130_1083"/>
<feBlend mode="normal" in="SourceGraphic" in2="effect1_dropShadow_130_1083" result="shape"/>
</filter>
</defs>
</svg>
