<svg width="36" height="38" viewBox="0 0 36 38" fill="none" xmlns="http://www.w3.org/2000/svg">
<path d="M0.79126 1.49998H3.83626C5.72626 1.49998 7.21376 3.12748 7.05626 4.99998L5.60376 22.43C5.54705 23.1052 5.63121 23.7849 5.85092 24.4259C6.07063 25.067 6.42109 25.6554 6.8801 26.1539C7.33911 26.6524 7.89666 27.0501 8.51742 27.3218C9.13819 27.5936 9.80862 27.7334 10.4863 27.7325H29.1238C31.6438 27.7325 33.8488 25.6675 34.0413 23.165L34.9863 10.04C35.1963 7.13498 32.9912 4.77248 30.0688 4.77248H7.47626M25.7288 36.5C26.3089 36.5 26.8653 36.2695 27.2756 35.8593C27.6858 35.449 27.9163 34.8926 27.9163 34.3125C27.9163 33.7323 27.6858 33.1759 27.2756 32.7657C26.8653 32.3555 26.3089 32.125 25.7288 32.125C25.1486 32.125 24.5922 32.3555 24.182 32.7657C23.7717 33.1759 23.5413 33.7323 23.5413 34.3125C23.5413 34.8926 23.7717 35.449 24.182 35.8593C24.5922 36.2695 25.1486 36.5 25.7288 36.5ZM11.7288 36.5C12.3089 36.5 12.8653 36.2695 13.2756 35.8593C13.6858 35.449 13.9163 34.8926 13.9163 34.3125C13.9163 33.7323 13.6858 33.1759 13.2756 32.7657C12.8653 32.3555 12.3089 32.125 11.7288 32.125C11.1486 32.125 10.5922 32.3555 10.182 32.7657C9.77173 33.1759 9.54126 33.7323 9.54126 34.3125C9.54126 34.8926 9.77173 35.449 10.182 35.8593C10.5922 36.2695 11.1486 36.5 11.7288 36.5ZM13.0413 12H34.0413H13.0413Z" fill="#898FA5" fill-opacity="0.79"/>
<path d="M0.79126 1.49998H3.83626C5.72626 1.49998 7.21376 3.12748 7.05626 4.99998L5.60376 22.43C5.54705 23.1052 5.63121 23.7849 5.85092 24.4259C6.07063 25.067 6.42109 25.6554 6.8801 26.1539C7.33911 26.6524 7.89666 27.0501 8.51742 27.3218C9.13819 27.5936 9.80862 27.7334 10.4863 27.7325H29.1238C31.6438 27.7325 33.8488 25.6675 34.0413 23.165L34.9863 10.04C35.1963 7.13498 32.9913 4.77248 30.0688 4.77248H7.47626M13.0413 12H34.0413M25.7288 36.5C26.3089 36.5 26.8653 36.2695 27.2756 35.8593C27.6858 35.449 27.9163 34.8926 27.9163 34.3125C27.9163 33.7323 27.6858 33.1759 27.2756 32.7657C26.8653 32.3555 26.3089 32.125 25.7288 32.125C25.1486 32.125 24.5922 32.3555 24.182 32.7657C23.7717 33.1759 23.5413 33.7323 23.5413 34.3125C23.5413 34.8926 23.7717 35.449 24.182 35.8593C24.5922 36.2695 25.1486 36.5 25.7288 36.5ZM11.7288 36.5C12.3089 36.5 12.8653 36.2695 13.2756 35.8593C13.6858 35.449 13.9163 34.8926 13.9163 34.3125C13.9163 33.7323 13.6858 33.1759 13.2756 32.7657C12.8653 32.3555 12.3089 32.125 11.7288 32.125C11.1486 32.125 10.5922 32.3555 10.182 32.7657C9.77173 33.1759 9.54126 33.7323 9.54126 34.3125C9.54126 34.8926 9.77173 35.449 10.182 35.8593C10.5922 36.2695 11.1486 36.5 11.7288 36.5Z" stroke="white" stroke-width="1.5" stroke-miterlimit="10" stroke-linecap="round" stroke-linejoin="round"/>
</svg>
