<svg width="41" height="41" viewBox="0 0 41 41" fill="none" xmlns="http://www.w3.org/2000/svg">
<g filter="url(#filter0_d_31_1637)">
<rect x="39" y="37" width="37" height="37" rx="18.5" transform="rotate(-180 39 37)" fill="white" shape-rendering="crispEdges"/>
<path d="M22.2321 27.5C21.4623 28.8333 19.5377 28.8333 18.7679 27.5L11.8397 15.5C11.0699 14.1667 12.0322 12.5 13.5718 12.5L27.4282 12.5C28.9678 12.5 29.9301 14.1667 29.1603 15.5L22.2321 27.5Z" fill="#D9D9D9"/>
<path d="M21.366 25.5C20.9811 26.1667 20.0189 26.1667 19.634 25.5L14.0048 15.75C13.6199 15.0833 14.101 14.25 14.8708 14.25L26.1292 14.25C26.899 14.25 27.3801 15.0833 26.9952 15.75L21.366 25.5Z" fill="white"/>
</g>
<defs>
<filter id="filter0_d_31_1637" x="0" y="0" width="41" height="41" filterUnits="userSpaceOnUse" color-interpolation-filters="sRGB">
<feFlood flood-opacity="0" result="BackgroundImageFix"/>
<feColorMatrix in="SourceAlpha" type="matrix" values="0 0 0 0 0 0 0 0 0 0 0 0 0 0 0 0 0 0 127 0" result="hardAlpha"/>
<feOffset dy="2"/>
<feGaussianBlur stdDeviation="1"/>
<feComposite in2="hardAlpha" operator="out"/>
<feColorMatrix type="matrix" values="0 0 0 0 0 0 0 0 0 0 0 0 0 0 0 0 0 0 0.25 0"/>
<feBlend mode="normal" in2="BackgroundImageFix" result="effect1_dropShadow_31_1637"/>
<feBlend mode="normal" in="SourceGraphic" in2="effect1_dropShadow_31_1637" result="shape"/>
</filter>
</defs>
</svg>
