<svg width="41" height="41" viewBox="0 0 41 41" fill="none" xmlns="http://www.w3.org/2000/svg">
<g filter="url(#filter0_d_31_1630)">
<rect x="2" width="37" height="37" rx="18.5" fill="white" shape-rendering="crispEdges"/>
<path d="M18.7679 9.5C19.5377 8.16667 21.4623 8.16667 22.2321 9.5L29.1603 21.5C29.9301 22.8333 28.9678 24.5 27.4282 24.5H13.5718C12.0322 24.5 11.0699 22.8333 11.8397 21.5L18.7679 9.5Z" fill="#D9D9D9"/>
<path d="M19.634 11.5C20.0189 10.8333 20.9811 10.8333 21.366 11.5L26.9952 21.25C27.3801 21.9167 26.899 22.75 26.1292 22.75H14.8708C14.101 22.75 13.6199 21.9167 14.0048 21.25L19.634 11.5Z" fill="white"/>
</g>
<defs>
<filter id="filter0_d_31_1630" x="0" y="0" width="41" height="41" filterUnits="userSpaceOnUse" color-interpolation-filters="sRGB">
<feFlood flood-opacity="0" result="BackgroundImageFix"/>
<feColorMatrix in="SourceAlpha" type="matrix" values="0 0 0 0 0 0 0 0 0 0 0 0 0 0 0 0 0 0 127 0" result="hardAlpha"/>
<feOffset dy="2"/>
<feGaussianBlur stdDeviation="1"/>
<feComposite in2="hardAlpha" operator="out"/>
<feColorMatrix type="matrix" values="0 0 0 0 0 0 0 0 0 0 0 0 0 0 0 0 0 0 0.25 0"/>
<feBlend mode="normal" in2="BackgroundImageFix" result="effect1_dropShadow_31_1630"/>
<feBlend mode="normal" in="SourceGraphic" in2="effect1_dropShadow_31_1630" result="shape"/>
</filter>
</defs>
</svg>
